<svg width="741" height="371" viewBox="0 0 741 371" fill="none" xmlns="http://www.w3.org/2000/svg">
<g clip-path="url(#clip0_8717_693)">
<rect x="185.9" y="96.616" width="170.519" height="74.6854" rx="37.3427" transform="rotate(-36.1971 185.9 96.616)" fill="#6366F1" stroke="black" stroke-width="6"/>
<path d="M336.665 130.778L258.454 75.3977C241.622 63.4795 218.316 67.4626 206.398 84.2942C194.48 101.126 198.463 124.432 215.294 136.35L293.506 191.731C310.338 203.649 333.644 199.666 345.562 182.834C357.48 166.002 353.497 142.696 336.665 130.778Z" fill="#C2C3E6" stroke="black" stroke-width="6"/>
<rect x="0.714718" y="-4.18201" width="170.519" height="74.6854" rx="37.3427" transform="matrix(-0.816121 0.577881 0.577881 0.816121 517.444 56.712)" fill="#6366F1" stroke="black" stroke-width="6"/>
<rect x="4.19267" y="-0.649274" width="170.519" height="74.6854" rx="37.3427" transform="matrix(-0.80699 -0.590565 -0.590565 0.80699 559.521 99.51)" fill="#C2C3E6" stroke="black" stroke-width="6"/>
<path d="M49.92 335.92C41.84 335.92 34.4 333.96 27.6 330.04C20.8 326.12 15.4 320.72 11.4 313.84C7.4 306.96 5.4 299.36 5.4 291.04C5.4 282.72 7.4 275.12 11.4 268.24C15.4 261.36 20.8 255.96 27.6 252.04C34.4 248.12 41.84 246.16 49.92 246.16C56.24 246.16 62.16 247.28 67.68 249.52C73.28 251.76 77.88 254.92 81.48 259L74.16 266.32C71.44 262.96 67.96 260.4 63.72 258.64C59.48 256.8 54.92 255.88 50.04 255.88C43.96 255.88 38.28 257.36 33 260.32C27.8 263.2 23.6 267.32 20.4 272.68C17.28 277.96 15.72 284.08 15.72 291.04C15.72 298 17.28 304.16 20.4 309.52C23.6 314.8 27.84 318.92 33.12 321.88C38.4 324.76 44.04 326.2 50.04 326.2C55.8 326.2 60.6 325.32 64.44 323.56C68.36 321.72 71.72 319.32 74.52 316.36C76.6 314.12 78.28 311.44 79.56 308.32C80.84 305.12 81.64 301.6 81.96 297.76H50.16V288.28H91.44C91.84 290.52 92.04 292.6 92.04 294.52C92.04 299.8 91.2 304.96 89.52 310C87.84 314.96 85.16 319.32 81.48 323.08C73.56 331.64 63.04 335.92 49.92 335.92ZM103.617 248.08H129.537C138.337 248.08 146.017 249.92 152.577 253.6C159.137 257.2 164.177 262.24 167.697 268.72C171.217 275.2 172.977 282.64 172.977 291.04C172.977 299.44 171.217 306.88 167.697 313.36C164.177 319.84 159.137 324.92 152.577 328.6C146.017 332.2 138.337 334 129.537 334H103.617V248.08ZM129.537 324.28C139.697 324.28 147.737 321.36 153.657 315.52C159.657 309.68 162.657 301.52 162.657 291.04C162.657 280.56 159.657 272.4 153.657 266.56C147.737 260.72 139.697 257.8 129.537 257.8H113.697V324.28H129.537ZM224.712 335.92C216.632 335.92 209.192 333.96 202.392 330.04C195.592 326.12 190.192 320.72 186.192 313.84C182.192 306.96 180.192 299.36 180.192 291.04C180.192 282.72 182.192 275.12 186.192 268.24C190.192 261.36 195.592 255.96 202.392 252.04C209.192 248.12 216.632 246.16 224.712 246.16C231.032 246.16 236.952 247.28 242.472 249.52C248.072 251.76 252.672 254.92 256.272 259L248.952 266.32C246.232 262.96 242.752 260.4 238.512 258.64C234.272 256.8 229.712 255.88 224.832 255.88C218.752 255.88 213.072 257.36 207.792 260.32C202.592 263.2 198.392 267.32 195.192 272.68C192.072 277.96 190.512 284.08 190.512 291.04C190.512 298 192.072 304.16 195.192 309.52C198.392 314.8 202.632 318.92 207.912 321.88C213.192 324.76 218.832 326.2 224.832 326.2C230.592 326.2 235.392 325.32 239.232 323.56C243.152 321.72 246.512 319.32 249.312 316.36C251.392 314.12 253.072 311.44 254.352 308.32C255.632 305.12 256.432 301.6 256.752 297.76H224.952V288.28H266.232C266.632 290.52 266.832 292.6 266.832 294.52C266.832 299.8 265.992 304.96 264.312 310C262.632 314.96 259.952 319.32 256.272 323.08C248.352 331.64 237.832 335.92 224.712 335.92ZM302.7 248.08H312.78V324.28H350.46V334H302.7V248.08ZM384.908 335.92C378.908 335.92 373.508 334.48 368.708 331.6C363.908 328.72 360.148 324.8 357.428 319.84C354.788 314.88 353.468 309.4 353.468 303.4C353.468 297.4 354.788 291.92 357.428 286.96C360.148 282 363.908 278.08 368.708 275.2C373.508 272.32 378.908 270.88 384.908 270.88C390.908 270.88 396.308 272.32 401.108 275.2C405.908 278.08 409.628 282 412.268 286.96C414.988 291.92 416.348 297.4 416.348 303.4C416.348 309.4 414.988 314.88 412.268 319.84C409.628 324.8 405.908 328.72 401.108 331.6C396.308 334.48 390.908 335.92 384.908 335.92ZM384.908 326.68C388.668 326.68 392.148 325.76 395.348 323.92C398.628 322 401.228 319.28 403.148 315.76C405.148 312.24 406.148 308.12 406.148 303.4C406.148 298.68 405.148 294.56 403.148 291.04C401.228 287.52 398.628 284.84 395.348 283C392.148 281.08 388.668 280.12 384.908 280.12C381.148 280.12 377.628 281.08 374.348 283C371.068 284.84 368.428 287.52 366.428 291.04C364.508 294.56 363.548 298.68 363.548 303.4C363.548 308.12 364.508 312.24 366.428 315.76C368.428 319.28 371.068 322 374.348 323.92C377.628 325.76 381.148 326.68 384.908 326.68ZM423.421 272.8H433.141V281.8H433.621C435.301 278.76 437.981 276.2 441.661 274.12C445.341 271.96 449.261 270.88 453.421 270.88C460.781 270.88 466.381 273.04 470.221 277.36C474.141 281.6 476.101 287.4 476.101 294.76V334H465.901V296.32C465.901 290.64 464.541 286.52 461.821 283.96C459.101 281.4 455.381 280.12 450.661 280.12C447.381 280.12 444.421 281.04 441.781 282.88C439.221 284.72 437.221 287.16 435.781 290.2C434.341 293.16 433.621 296.28 433.621 299.56V334H423.421V272.8ZM513.007 335.92C507.567 335.92 502.607 334.52 498.127 331.72C493.727 328.92 490.247 325.08 487.687 320.2C485.127 315.24 483.847 309.64 483.847 303.4C483.847 297.24 485.127 291.68 487.687 286.72C490.247 281.76 493.727 277.88 498.127 275.08C502.607 272.28 507.567 270.88 513.007 270.88C517.727 270.88 521.927 271.96 525.607 274.12C529.287 276.2 532.087 278.8 534.007 281.92H534.487L534.007 273.4V248.08H544.207V334H534.487V325H534.007C532.087 328.04 529.287 330.64 525.607 332.8C521.927 334.88 517.727 335.92 513.007 335.92ZM514.207 326.68C517.807 326.68 521.127 325.72 524.167 323.8C527.287 321.88 529.767 319.16 531.607 315.64C533.527 312.12 534.487 308.04 534.487 303.4C534.487 298.76 533.527 294.68 531.607 291.16C529.767 287.64 527.287 284.92 524.167 283C521.127 281.08 517.807 280.12 514.207 280.12C510.687 280.12 507.367 281.08 504.247 283C501.127 284.92 498.607 287.68 496.687 291.28C494.847 294.8 493.927 298.84 493.927 303.4C493.927 307.96 494.847 312.04 496.687 315.64C498.607 319.16 501.127 321.88 504.247 323.8C507.367 325.72 510.687 326.68 514.207 326.68ZM555.674 272.8H565.394V282.64H565.874C567.074 279.28 569.394 276.52 572.834 274.36C576.274 272.12 579.874 271 583.634 271C586.434 271 588.834 271.4 590.834 272.2V283.24C588.274 281.96 585.394 281.32 582.194 281.32C579.234 281.32 576.514 282.16 574.034 283.84C571.554 285.52 569.554 287.8 568.034 290.68C566.594 293.48 565.874 296.52 565.874 299.8V334H555.674V272.8ZM603.074 261.52C601.074 261.52 599.354 260.8 597.914 259.36C596.474 257.92 595.754 256.2 595.754 254.2C595.754 252.2 596.474 250.52 597.914 249.16C599.354 247.72 601.074 247 603.074 247C605.074 247 606.794 247.72 608.234 249.16C609.674 250.52 610.394 252.2 610.394 254.2C610.394 256.2 609.674 257.92 608.234 259.36C606.874 260.8 605.154 261.52 603.074 261.52ZM598.034 272.8H608.114V334H598.034V272.8ZM620.544 272.8H630.264V281.8H630.744C632.424 278.76 635.104 276.2 638.784 274.12C642.464 271.96 646.384 270.88 650.544 270.88C657.904 270.88 663.504 273.04 667.344 277.36C671.264 281.6 673.224 287.4 673.224 294.76V334H663.024V296.32C663.024 290.64 661.664 286.52 658.944 283.96C656.224 281.4 652.504 280.12 647.784 280.12C644.504 280.12 641.544 281.04 638.904 282.88C636.344 284.72 634.344 287.16 632.904 290.2C631.464 293.16 630.744 296.28 630.744 299.56V334H620.544V272.8ZM703.184 335.92C698.704 335.92 694.704 335.04 691.184 333.28C687.664 331.52 684.944 329.12 683.024 326.08C681.104 322.96 680.144 319.44 680.144 315.52C680.144 309.04 682.584 304 687.464 300.4C692.344 296.72 698.504 294.88 705.944 294.88C709.624 294.88 713.024 295.28 716.144 296.08C719.344 296.88 721.784 297.8 723.464 298.84V295.12C723.464 290.56 721.864 286.92 718.664 284.2C715.464 281.4 711.424 280 706.544 280C703.104 280 699.944 280.76 697.064 282.28C694.184 283.72 691.904 285.76 690.224 288.4L682.544 282.64C684.944 278.96 688.224 276.08 692.384 274C696.624 271.92 701.304 270.88 706.424 270.88C714.744 270.88 721.264 273.08 725.984 277.48C730.784 281.8 733.184 287.72 733.184 295.24V334H723.464V325.24H722.984C721.224 328.2 718.584 330.72 715.064 332.8C711.544 334.88 707.584 335.92 703.184 335.92ZM704.144 326.92C707.584 326.92 710.784 326.04 713.744 324.28C716.704 322.52 719.064 320.16 720.824 317.2C722.584 314.24 723.464 311 723.464 307.48C721.544 306.2 719.184 305.16 716.384 304.36C713.584 303.56 710.624 303.16 707.504 303.16C701.904 303.16 697.664 304.32 694.784 306.64C691.984 308.96 690.584 311.96 690.584 315.64C690.584 319 691.864 321.72 694.424 323.8C696.984 325.88 700.224 326.92 704.144 326.92Z" fill="black"/>
</g>
<defs>
<clipPath id="clip0_8717_693">
<rect width="741" height="371" fill="white"/>
</clipPath>
</defs>
</svg>
